<svg width="125" height="32" viewBox="0 0 125 32" fill="none" xmlns="http://www.w3.org/2000/svg">
<path d="M10.6665 32C4.7821 32 -0.00012207 27.2178 -0.00012207 21.3334H10.6665V32Z" fill="#2F67DD"/>
<path d="M10.6666 10.6667C16.551 10.6667 21.3332 15.4489 21.3332 21.3334H10.6666V10.6667Z" fill="#2F67DD"/>
<path d="M-0.00012207 21.3334C-0.00012207 15.4489 4.7821 10.6667 10.6665 10.6667V21.3334H-0.00012207Z" fill="#2F67DD"/>
<path d="M21.3332 21.3334C21.3332 27.2178 16.551 32 10.6666 32V21.3334H21.3332Z" fill="#2F67DD"/>
<path d="M21.3333 0C27.2177 0 31.9999 4.78222 31.9999 10.6667H21.3333V0Z" fill="#9FB9EF"/>
<path d="M10.6666 10.6667C10.6666 4.78222 15.4488 0 21.3332 0V10.6667H10.6666Z" fill="#9FB9EF"/>
<path d="M31.9999 10.6667C31.9999 16.5511 27.2177 21.3334 21.3333 21.3334V10.6667H31.9999Z" fill="#9FB9EF"/>
<path d="M41.3 8.5H46.26C49.24 8.5 52.64 8.92 52.64 13.3C52.64 17 49.68 17.9 46.34 17.9H44.16V23H41.3V8.5ZM46.32 10.74H44.16V15.68H46.52C48.3 15.68 49.7 15.24 49.7 13.32C49.7 10.94 47.88 10.74 46.32 10.74ZM58.3419 14.16C56.8219 14.16 55.7419 15.38 55.7419 17.64C55.7419 19.88 56.8219 21.1 58.3419 21.1C59.8619 21.1 60.9419 19.88 60.9419 17.64C60.9419 15.38 59.8619 14.16 58.3419 14.16ZM58.3419 23.26C55.6219 23.26 52.9419 21.42 52.9419 17.64C52.9419 13.86 55.6219 12 58.3419 12C61.0619 12 63.7419 13.86 63.7419 17.64C63.7419 21.42 61.0619 23.26 58.3419 23.26ZM74.2159 15.48H71.6359C71.4359 14.58 70.5959 13.94 69.3359 13.94C68.3159 13.94 67.5959 14.32 67.5959 14.98C67.5959 15.56 68.0159 16 69.0359 16.22L70.4759 16.54C72.6159 17.02 74.4359 17.56 74.4359 19.78C74.4359 21.94 72.2159 23.26 69.7759 23.26C67.1359 23.26 65.1359 21.9 64.8759 19.44H67.5359C67.6959 20.48 68.4359 21.26 69.8559 21.26C71.0359 21.26 71.7959 20.82 71.7959 20.04C71.7959 19.24 70.9559 18.92 70.0359 18.72L68.4359 18.38C66.4159 17.96 65.0759 17.12 65.0759 15.16C65.0759 13.22 67.1559 11.96 69.4759 11.96C71.7159 11.96 73.8559 13 74.2159 15.48ZM76.6786 12.24V9.32H79.4386V12.24H81.6786V14.14H79.4386V19.7C79.4386 20.8 79.8186 21.02 80.7986 21.02H81.6386V23H79.6186C77.1586 23 76.6786 22.24 76.6786 20.1V14.14H75.1586V12.24H76.6786ZM89.607 12.3V14.9C89.207 14.86 88.867 14.84 88.467 14.84C87.107 14.84 86.207 15.34 86.207 17.36V23H83.447V12.24H86.167V14.12C86.787 12.8 87.767 12.26 89.007 12.26C89.187 12.26 89.427 12.28 89.607 12.3ZM97.3545 18.88V18.08C94.2745 18.4 93.0345 18.76 93.0345 19.96C93.0345 20.74 93.6545 21.38 94.8945 21.38C96.6145 21.38 97.3545 20.44 97.3545 18.88ZM97.5945 21.66C96.8345 22.78 95.6945 23.26 94.0745 23.26C92.0145 23.26 90.1945 22.06 90.1945 20.1C90.1945 17.56 93.0545 16.8 97.2745 16.32V16.14C97.2745 14.48 96.3745 13.9 95.2545 13.9C94.1945 13.9 93.3145 14.46 93.2545 15.64H90.6745C90.8745 13.52 92.6345 11.96 95.3945 11.96C97.9545 11.96 100.035 13.06 100.035 16.7C100.035 17.04 99.9945 18.46 99.9945 19.44C99.9945 21.14 100.115 22.1 100.315 23H97.7745C97.6945 22.66 97.6345 22.18 97.5945 21.66ZM105.094 12.24V13.66C105.714 12.58 106.894 12 108.214 12C110.794 12 111.934 13.58 111.934 16.22V23H109.174V16.82C109.174 15.42 108.874 14.22 107.314 14.22C105.494 14.22 105.094 15.7 105.094 17.4V23H102.334V12.24H105.094ZM114.248 8.5H117.008V16.56L120.928 12.24H124.028L120.168 16.36L124.248 23H121.148L118.328 18.34L117.008 19.76V23H114.248V8.5Z" fill="black"/>
</svg>
