<svg width="20" height="20" viewBox="0 0 20 20" fill="none" xmlns="http://www.w3.org/2000/svg">
<g id="20/add">
<path id="Vector" d="M10 15.9478C9.73404 15.9478 9.50261 15.8494 9.30575 15.6525C9.10889 15.4557 9.01046 15.2264 9.01046 14.9648V10.9895H5.03519C4.77353 10.9895 4.54428 10.8911 4.34742 10.6942C4.15055 10.4973 4.05212 10.2659 4.05212 9.99992C4.05212 9.73392 4.15055 9.50249 4.34742 9.30563C4.54428 9.10877 4.77353 9.01034 5.03519 9.01034H9.01046V5.03506C9.01046 4.77341 9.10889 4.54415 9.30575 4.34729C9.50261 4.15043 9.73404 4.052 10 4.052C10.266 4.052 10.4975 4.15043 10.6943 4.34729C10.8912 4.54415 10.9896 4.77341 10.9896 5.03506V9.01034H14.9649C15.2265 9.01034 15.4558 9.10877 15.6527 9.30563C15.8495 9.50249 15.948 9.73392 15.948 9.99992C15.948 10.2659 15.8495 10.4973 15.6527 10.6942C15.4558 10.8911 15.2265 10.9895 14.9649 10.9895H10.9896V14.9648C10.9896 15.2264 10.8912 15.4557 10.6943 15.6525C10.4975 15.8494 10.266 15.9478 10 15.9478Z" fill="#464646"/>
</g>
</svg>
