<svg width="20" height="40" viewBox="0 0 20 40" fill="none" xmlns="http://www.w3.org/2000/svg">
<path d="M10 25.9478C9.73404 25.9478 9.50261 25.8494 9.30575 25.6525C9.10889 25.4557 9.01046 25.2264 9.01046 24.9648V20.9895H5.03519C4.77353 20.9895 4.54428 20.8911 4.34742 20.6942C4.15055 20.4973 4.05212 20.2659 4.05212 19.9999C4.05212 19.7339 4.15055 19.5025 4.34742 19.3056C4.54428 19.1088 4.77353 19.0103 5.03519 19.0103H9.01046V15.0351C9.01046 14.7734 9.10889 14.5442 9.30575 14.3473C9.50261 14.1504 9.73404 14.052 10 14.052C10.266 14.052 10.4975 14.1504 10.6943 14.3473C10.8912 14.5442 10.9896 14.7734 10.9896 15.0351V19.0103H14.9649C15.2265 19.0103 15.4558 19.1088 15.6527 19.3056C15.8495 19.5025 15.948 19.7339 15.948 19.9999C15.948 20.2659 15.8495 20.4973 15.6527 20.6942C15.4558 20.8911 15.2265 20.9895 14.9649 20.9895H10.9896V24.9648C10.9896 25.2264 10.8912 25.4557 10.6943 25.6525C10.4975 25.8494 10.266 25.9478 10 25.9478Z" fill="#464646"/>
</svg>
