<svg width="41" height="40" viewBox="0 0 41 40" fill="none" xmlns="http://www.w3.org/2000/svg">
<rect x="0.5" width="40" height="40" rx="20" fill="#2F67DD"/>
<path d="M17.3062 19.4761C16.9194 19.4761 16.6294 19.3077 16.436 18.9708C16.2426 18.634 16.2495 18.2999 16.4566 17.9683L19.6712 12.7097C19.8668 12.3954 20.1487 12.2383 20.5172 12.2383C20.8856 12.2383 21.1701 12.3954 21.3705 12.7097L24.5852 17.9683C24.7923 18.2999 24.7992 18.634 24.6058 18.9708C24.4124 19.3077 24.1223 19.4761 23.7356 19.4761H17.3062ZM25.2021 28.6373C24.1081 28.6373 23.1779 28.2549 22.4115 27.4901C21.645 26.7254 21.2618 25.796 21.2618 24.7021C21.2618 23.6081 21.645 22.6779 22.4115 21.9115C23.1779 21.145 24.1081 20.7618 25.2021 20.7618C26.296 20.7618 27.2254 21.145 27.9901 21.9115C28.7549 22.6779 29.1373 23.6081 29.1373 24.7021C29.1373 25.796 28.7549 26.7254 27.9901 27.4901C27.2254 28.2549 26.296 28.6373 25.2021 28.6373V28.6373ZM13.6047 28.2206C13.3396 28.2206 13.1086 28.1222 12.9117 27.9253C12.7149 27.7285 12.6165 27.4975 12.6165 27.2323V22.1459C12.6165 21.8808 12.7149 21.6498 12.9117 21.4529C13.1086 21.2561 13.3396 21.1577 13.6047 21.1577H18.6961C18.9612 21.1577 19.1922 21.2561 19.3891 21.4529C19.586 21.6498 19.6844 21.8808 19.6844 22.1459V27.2323C19.6844 27.4975 19.586 27.7285 19.3891 27.9253C19.1922 28.1222 18.9612 28.2206 18.6961 28.2206H13.6047V28.2206Z" fill="white"/>
</svg>
