<svg width="28" height="28" viewBox="0 0 28 28" fill="none" xmlns="http://www.w3.org/2000/svg">
<g id="20/Category">
<path id="Vector" d="M9.52863 13.2664C8.98714 13.2664 8.58103 13.0307 8.31028 12.5591C8.03954 12.0876 8.04915 11.6198 8.33913 11.1556L12.8397 3.79359C13.1134 3.35356 13.5082 3.13354 14.0239 3.13354C14.5397 3.13354 14.938 3.35356 15.2187 3.79359L19.7192 11.1556C20.0092 11.6198 20.0188 12.0876 19.748 12.5591C19.4773 13.0307 19.0712 13.2664 18.5297 13.2664H9.52863ZM20.5828 26.0922C19.0513 26.0922 17.749 25.5568 16.676 24.4861C15.603 23.4155 15.0665 22.1143 15.0665 20.5828C15.0665 19.0513 15.603 17.749 16.676 16.676C17.749 15.603 19.0513 15.0665 20.5828 15.0665C22.1143 15.0665 23.4154 15.603 24.4861 16.676C25.5568 17.749 26.0921 19.0513 26.0921 20.5828C26.0921 22.1143 25.5568 23.4155 24.4861 24.4861C23.4154 25.5568 22.1143 26.0921 20.5828 26.0921V26.0922ZM4.34656 25.5088C3.97535 25.5088 3.65194 25.371 3.37633 25.0954C3.10074 24.8198 2.96295 24.4964 2.96295 24.1252V17.0043C2.96295 16.6331 3.10074 16.3097 3.37633 16.0341C3.65194 15.7585 3.97535 15.6207 4.34656 15.6207H11.4745C11.8457 15.6207 12.1691 15.7585 12.4447 16.0341C12.7203 16.3097 12.8581 16.6331 12.8581 17.0043V24.1252C12.8581 24.4964 12.7203 24.8198 12.4447 25.0954C12.1691 25.371 11.8457 25.5088 11.4745 25.5088H4.34656V25.5088Z" fill="#2F67DD"/>
</g>
</svg>
