<svg width="18" height="18" viewBox="0 0 18 18" fill="none" xmlns="http://www.w3.org/2000/svg">
<path d="M8.99916 10.2496L5.45215 13.7966C5.28122 13.9676 5.07606 14.0499 4.83666 14.0437C4.59726 14.0374 4.3921 13.9488 4.22117 13.7779C4.05025 13.607 3.96478 13.3987 3.96478 13.153C3.96478 12.9074 4.05025 12.6991 4.22117 12.5282L7.74943 8.9999L4.20242 5.45289C4.0315 5.28196 3.94916 5.07368 3.95541 4.82803C3.96166 4.58238 4.05025 4.37409 4.22117 4.20317C4.3921 4.03224 4.60038 3.94678 4.84603 3.94678C5.09168 3.94678 5.29997 4.03224 5.4709 4.20317L8.99916 7.75018L12.5462 4.20317C12.7171 4.03224 12.9254 3.94678 13.171 3.94678C13.4167 3.94678 13.625 4.03224 13.7959 4.20317C13.9668 4.37409 14.0523 4.58238 14.0523 4.82803C14.0523 5.07368 13.9668 5.28196 13.7959 5.45289L10.2489 8.9999L13.7959 12.5469C13.9668 12.7178 14.0523 12.923 14.0523 13.1624C14.0523 13.4018 13.9668 13.607 13.7959 13.7779C13.625 13.9488 13.4167 14.0343 13.171 14.0343C12.9254 14.0343 12.7171 13.9488 12.5462 13.7779L8.99916 10.2496Z" fill="#274C9B"/>
</svg>
