<svg width="18" height="18" viewBox="0 0 18 18" fill="none" xmlns="http://www.w3.org/2000/svg">
<path d="M1.50159 15.2287C1.26219 15.2287 1.0539 15.1401 0.876724 14.9629C0.699549 14.7857 0.610962 14.5774 0.610962 14.338V12.911C0.610962 12.4466 0.730931 12.0274 0.970868 11.6535C1.21082 11.2796 1.52549 10.9992 1.91489 10.8122C2.67387 10.4342 3.47183 10.15 4.30878 9.9595C5.14574 9.76901 5.9827 9.67377 6.81965 9.67377C7.66259 9.67377 8.50254 9.77139 9.3395 9.96663C10.1764 10.1619 10.9714 10.4422 11.7244 10.8077C12.1138 10.9947 12.4285 11.2744 12.6684 11.6468C12.9084 12.0192 13.0284 12.4406 13.0284 12.911V14.338C13.0284 14.5774 12.9398 14.7857 12.7626 14.9629C12.5854 15.1401 12.3771 15.2287 12.1377 15.2287H1.50159ZM14.2463 15.2287C14.3583 15.1167 14.4382 14.983 14.4862 14.8276C14.5341 14.6721 14.5581 14.509 14.5581 14.338V12.7557C14.5581 12.2437 14.419 11.7209 14.1407 11.1872C13.8625 10.6535 13.4376 10.183 12.8661 9.77568C13.4957 9.85665 14.0736 9.98552 14.5997 10.1623C15.1258 10.339 15.6328 10.5542 16.1209 10.8077C16.5953 11.0577 16.9253 11.3562 17.1108 11.703C17.2962 12.0499 17.389 12.4615 17.389 12.9379V14.338C17.389 14.5774 17.3004 14.7857 17.1232 14.9629C16.946 15.1401 16.7377 15.2287 16.4983 15.2287H14.2463ZM6.81965 8.90502C5.94574 8.90502 5.21456 8.6108 4.62611 8.02234C4.03766 7.43388 3.74343 6.70269 3.74343 5.82878C3.74343 4.95487 4.03766 4.22369 4.62611 3.63524C5.21456 3.04679 5.94574 2.75256 6.81965 2.75256C7.69356 2.75256 8.42475 3.04679 9.01321 3.63524C9.60166 4.22369 9.89589 4.95487 9.89589 5.82878C9.89589 6.70269 9.60166 7.43388 9.01321 8.02234C8.42475 8.6108 7.69356 8.90502 6.81965 8.90502ZM14.5394 5.82878C14.5394 6.69971 14.2444 7.43014 13.6544 8.02009C13.0645 8.61004 12.3341 8.90502 11.4631 8.90502C11.3227 8.90502 11.132 8.88552 10.8913 8.84652C10.6505 8.80753 10.4554 8.76629 10.3059 8.72281C10.6369 8.31683 10.8938 7.86724 11.0765 7.37403C11.2593 6.88083 11.3506 6.36574 11.3506 5.82878C11.3506 5.30433 11.2593 4.7955 11.0765 4.30229C10.8938 3.80909 10.6369 3.35949 10.3059 2.95351C10.4964 2.88802 10.6917 2.83816 10.8917 2.80392C11.0917 2.76968 11.2822 2.75256 11.4631 2.75256C12.3341 2.75256 13.0645 3.04754 13.6544 3.63749C14.2444 4.22743 14.5394 4.95786 14.5394 5.82878Z" fill="#464646"/>
</svg>
