<svg width="18" height="18" viewBox="0 0 18 18" fill="none" xmlns="http://www.w3.org/2000/svg">
<path d="M9.02094 12.0375C9.96946 12.0375 10.775 11.6992 11.4375 11.0227C12.1 10.3463 12.4312 9.53378 12.4312 8.58524C12.4312 7.63671 12.0992 6.8312 11.4353 6.1687C10.7713 5.5062 9.96505 5.17495 9.01651 5.17495C8.06799 5.17495 7.25623 5.50694 6.58123 6.17091C5.90623 6.83488 5.56873 7.64113 5.56873 8.58966C5.56873 9.5486 5.90436 10.363 6.57562 11.0328C7.24688 11.7026 8.06199 12.0375 9.02094 12.0375ZM9.01873 10.6312C8.45101 10.6312 7.96846 10.4325 7.57108 10.0351C7.17368 9.63771 6.97498 9.15516 6.97498 8.58745C6.97498 8.03016 7.17368 7.55646 7.57108 7.16635C7.96846 6.77625 8.45101 6.5812 9.01873 6.5812C9.57601 6.5812 10.0497 6.77625 10.4398 7.16635C10.8299 7.55646 11.025 8.03016 11.025 8.58745C11.025 9.15516 10.8299 9.63771 10.4398 10.0351C10.0497 10.4325 9.57601 10.6312 9.01873 10.6312ZM8.99998 14.25C7.24998 14.25 5.65623 13.7875 4.21873 12.8625C2.78123 11.9375 1.69998 10.6937 0.974976 9.1312C0.949976 9.0687 0.928101 8.99058 0.909351 8.89683C0.890601 8.80308 0.881226 8.7062 0.881226 8.6062C0.881226 8.5062 0.890601 8.40933 0.909351 8.31558C0.928101 8.22183 0.949976 8.1437 0.974976 8.0812C1.69998 6.5187 2.78318 5.27808 4.22458 4.35933C5.66596 3.44058 7.25776 2.9812 8.99998 2.9812C10.7422 2.9812 12.334 3.44058 13.7754 4.35933C15.2168 5.27808 16.3 6.5187 17.025 8.0812C17.05 8.1437 17.0719 8.22183 17.0906 8.31558C17.1094 8.40933 17.1187 8.5062 17.1187 8.6062C17.1187 8.7062 17.1094 8.80308 17.0906 8.89683C17.0719 8.99058 17.05 9.0687 17.025 9.1312C16.3 10.6937 15.2187 11.9375 13.7812 12.8625C12.3437 13.7875 10.75 14.25 8.99998 14.25Z" fill="#464646"/>
</svg>
