<svg width="20" height="20" viewBox="0 0 20 20" fill="none" xmlns="http://www.w3.org/2000/svg">
<g id="20/forward">
<path id="Vector" d="M10.6889 3.93443L16.0417 9.26143C16.1489 9.36861 16.2266 9.48175 16.275 9.60087C16.3233 9.71998 16.3474 9.84173 16.3474 9.96614C16.3474 10.0905 16.3233 10.2123 16.275 10.3314C16.2266 10.4505 16.1489 10.5637 16.0417 10.6708L10.6889 16.0237C10.499 16.2136 10.2702 16.3112 10.0025 16.3164C9.73487 16.3217 9.49913 16.2225 9.29533 16.0187C9.10541 15.8254 9.01045 15.5923 9.01045 15.3194C9.01045 15.0464 9.10541 14.815 9.29533 14.6251L12.9647 10.9557L4.24822 10.9557C3.98222 10.9557 3.75079 10.8573 3.55393 10.6604C3.35707 10.4636 3.25864 10.2321 3.25864 9.96614C3.25864 9.70014 3.35707 9.46871 3.55393 9.27184C3.75079 9.07498 3.98223 8.97655 4.24822 8.97655L12.9647 8.97655L9.29533 5.30718C9.10541 5.11726 9.00698 4.89277 9.00004 4.63372C8.99309 4.37465 9.09152 4.14155 9.29533 3.93443C9.48857 3.74451 9.72166 3.64955 9.9946 3.64955C10.2675 3.64955 10.499 3.74451 10.6889 3.93443Z" fill="#464646"/>
</g>
</svg>
