<svg width="21" height="40" viewBox="0 0 21 40" fill="none" xmlns="http://www.w3.org/2000/svg">
<path d="M11.1889 13.9344L16.5417 19.2614C16.6489 19.3686 16.7266 19.4818 16.775 19.6009C16.8233 19.72 16.8474 19.8417 16.8474 19.9661C16.8474 20.0905 16.8233 20.2123 16.775 20.3314C16.7266 20.4505 16.6489 20.5637 16.5417 20.6708L11.1889 26.0237C10.999 26.2136 10.7702 26.3112 10.5025 26.3164C10.2349 26.3217 9.99913 26.2225 9.79533 26.0187C9.60541 25.8254 9.51045 25.5923 9.51045 25.3194C9.51045 25.0464 9.60541 24.815 9.79533 24.6251L13.4647 20.9557L4.74822 20.9557C4.48222 20.9557 4.25079 20.8573 4.05393 20.6604C3.85707 20.4636 3.75864 20.2321 3.75864 19.9661C3.75864 19.7001 3.85707 19.4687 4.05393 19.2718C4.25079 19.075 4.48223 18.9766 4.74822 18.9766L13.4647 18.9766L9.79533 15.3072C9.60541 15.1173 9.50698 14.8928 9.50004 14.6337C9.49309 14.3747 9.59152 14.1416 9.79533 13.9344C9.98857 13.7445 10.2217 13.6496 10.4946 13.6496C10.7675 13.6496 10.999 13.7445 11.1889 13.9344Z" fill="#464646"/>
</svg>
