<svg width="28" height="28" viewBox="0 0 28 28" fill="none" xmlns="http://www.w3.org/2000/svg">
<g id="label_FILL1_wght500_GRAD0_opsz20 1">
<path id="Vector" d="M23.241 15.6118L18.9879 20.9251C18.7219 21.2492 18.4095 21.4963 18.0508 21.6665C17.6921 21.8367 17.3053 21.9218 16.8906 21.9218H6.66296C5.9241 21.9218 5.29556 21.6627 4.77735 21.1445C4.25912 20.6262 4 19.9977 4 19.2588V8.66296C4 7.9241 4.25912 7.29556 4.77735 6.77735C5.29556 6.25912 5.9241 6 6.66296 6H16.8906C17.3053 6 17.6921 6.08637 18.0508 6.25911C18.4095 6.43186 18.7219 6.67773 18.9879 6.9967L23.241 12.31C23.6241 12.7991 23.8157 13.3495 23.8157 13.9609C23.8157 14.5723 23.6241 15.1227 23.241 15.6118Z" fill="#2F67DD"/>
</g>
</svg>
