<svg width="18" height="18" viewBox="0 0 18 18" fill="none" xmlns="http://www.w3.org/2000/svg">
<path d="M2.01325 12.9689C1.82982 12.7855 1.73736 12.5733 1.73586 12.3324C1.73436 12.0915 1.82532 11.8808 2.00875 11.7004L6.49 7.23792C6.58647 7.13845 6.68905 7.06773 6.79774 7.02574C6.90644 6.98377 7.01677 6.96278 7.12873 6.96278C7.24068 6.96278 7.34951 6.98377 7.45523 7.02574C7.56093 7.06773 7.66351 7.13845 7.76297 7.23792L10.11 9.58491L13.5901 6.10028H12.6551C12.4157 6.10028 12.2074 6.01169 12.0302 5.83452C11.8531 5.65734 11.7645 5.44906 11.7645 5.20966C11.7645 4.97026 11.8531 4.76197 12.0302 4.58479C12.2074 4.40762 12.4157 4.31903 12.6551 4.31903H15.735C15.9744 4.31903 16.1827 4.40762 16.3598 4.58479C16.537 4.76197 16.6256 4.97026 16.6256 5.20966V8.28507C16.6256 8.52447 16.537 8.73276 16.3598 8.90993C16.1827 9.08711 15.9744 9.17569 15.735 9.17569C15.4956 9.17569 15.2873 9.08711 15.1101 8.90993C14.9329 8.73276 14.8444 8.52447 14.8444 8.28507V7.36876L10.7442 11.4689C10.6477 11.5654 10.5459 11.6353 10.4387 11.6788C10.3315 11.7223 10.2219 11.744 10.11 11.744C9.99802 11.744 9.88769 11.7223 9.77899 11.6788C9.6703 11.6353 9.56772 11.5654 9.47125 11.4689L7.12873 9.12188L3.24422 12.9876C3.0608 13.1711 2.85176 13.2558 2.61711 13.2418C2.38246 13.2278 2.18117 13.1368 2.01325 12.9689Z" fill="#2F67DD"/>
</svg>
